<?xml version="1.0" encoding="UTF-8"?>
<svg id="a" data-name="Layer 1" xmlns="http://www.w3.org/2000/svg" xmlns:xlink="http://www.w3.org/1999/xlink" viewBox="0 0 1866.422 2641.27">
  <defs>
    <linearGradient id="b" x1="1218.86" y1="-745.685" x2="2862.002" y2="2139.459" gradientUnits="userSpaceOnUse">
      <stop offset="0" stop-color="#dec386"/>
      <stop offset=".376" stop-color="#d1a96b"/>
      <stop offset="1" stop-color="#a27640"/>
    </linearGradient>
    <linearGradient id="c" x1="-989.702" y1="512.131" x2="653.439" y2="3397.273" xlink:href="#b"/>
    <linearGradient id="d" x1="47.029" y1="-78.306" x2="1690.172" y2="2806.839" xlink:href="#b"/>
    <linearGradient id="e" x1="182.128" y1="-155.25" x2="1825.269" y2="2729.893" xlink:href="#b"/>
    <linearGradient id="f" x1="-559.049" y1="266.866" x2="1084.095" y2="3152.014" xlink:href="#b"/>
    <linearGradient id="g" x1="790.852" y1="-501.929" x2="2433.996" y2="2383.219" xlink:href="#b"/>
    <linearGradient id="h" x1="665.818" y1="-430.718" x2="2308.959" y2="2454.423" xlink:href="#b"/>
    <linearGradient id="i" x1="-434.013" y1="195.657" x2="1209.128" y2="3080.799" xlink:href="#b"/>
  </defs>
  <g>
    <path d="M1546.094,49.112c15.641.234,31.282-.331,46.923-.877,7.82-.273,15.641-.501,23.461-1.003,2.614-.161,5.228-.352,7.842-.552-.003.058-.009.116-.012.175-.247,4.974.235,9.903,1.266,14.625,1.015,4.728,2.613,9.253,4.635,13.496.534,1.048,1.015,2.118,1.591,3.134.587,1.006,1.132,2.052,1.752,3.012,1.268,1.933,2.409,3.765,3.725,5.649,1.298,1.854,2.641,3.664,4.053,5.406,1.389,1.761,2.864,3.438,4.382,5.063,5.978,6.604,12.779,12.207,19.949,17.212,7.244,4.874,14.87,9.266,23.04,12.603,2.027.884,4.114,1.59,6.203,2.332,1.044.373,2.112.651,3.172.98,1.063.317,2.125.651,3.208.892,1.078.268,2.16.526,3.247.774,1.084.221,2.169.399,3.257.599l1.635.274,1.598.246c1.099.162,2.201.297,3.308.399,2.205.222,4.446.356,6.646.379,1.099.002,2.202.031,3.303.005l3.316-.135c4.205-.243,8.39-.815,12.53-1.647-.798,4.363-1.345,8.774-1.575,13.207l-.126,3.503c-.016,1.162.001,2.33.009,3.486.024,2.334.159,4.695.377,7.026.1,1.168.232,2.333.391,3.492l.242,1.685.263,1.726c.2,1.149.345,2.293.592,3.44.238,1.146.486,2.289.743,3.426,1.12,4.527,2.413,8.978,4.098,13.249.763,2.163,1.751,4.231,2.606,6.336l1.455,3.08.72,1.537.784,1.503,1.553,3.002,1.66,2.933c.522.993,1.119,1.942,1.703,2.895.596.947,1.147,1.92,1.757,2.854,2.41,3.758,4.988,7.381,7.724,10.876,2.816,3.419,5.676,6.823,8.877,9.886,1.552,1.584,3.185,3.085,4.866,4.529,1.669,1.461,3.404,2.844,5.178,4.181.877.662,1.819,1.337,2.658,1.923l2.729,1.934,2.883,1.798,2.986,1.624c4.04,2.062,8.331,3.683,12.802,4.705,4.461,1.037,9.106,1.511,13.791,1.24-.188,2.716-.368,5.432-.519,8.148-.476,8.177-.692,16.353-.95,24.53-.517,16.354-1.051,32.707-.83,49.06.235,16.354.861,32.707,1.879,49.061,1.041,16.353,2.372,32.707,4.669,49.06h1.353c2.297-16.354,3.628-32.707,4.668-49.06,1.018-16.353,1.643-32.707,1.879-49.061.221-16.353-.314-32.707-.831-49.06-.258-8.177-.474-16.353-.95-24.53-.182-3.262-.402-6.525-.634-9.787,1.413-.404,2.813-.873,4.191-1.43,1.133-.445,2.259-1.007,3.386-1.525.536-.231,1.193-.633,1.694-.921.532-.311,1.057-.636,1.576-.972,2.075-1.339,4.047-2.854,5.896-4.519,7.335-6.685,12.947-15.759,15.059-26.207,1.078-5.195,1.223-10.687.319-16.054l-.373-2.031c-.161-.736-.333-1.362-.519-2.02-.373-1.304-.806-2.588-1.299-3.846-1.014-2.501-2.185-4.944-3.672-7.166-1.45-2.243-3.101-4.342-4.957-6.223-1.835-1.9-3.862-3.601-6.057-5.026-4.347-2.903-9.305-4.851-14.4-5.534l-.952-.139-1.025-.084c-.109-.007-.217-.016-.327-.023.796-9.714,1.776-19.428,2.293-29.143.441-8.177.537-16.354.376-24.53-.034-2.664-.09-5.329-.156-7.993,4.15-1.948,7.917-4.459,11.409-7.216.483-.353.936-.75,1.383-1.154l1.366-1.171c.453-.39.866-.835,1.304-1.245.433-.417.886-.808,1.3-1.246,1.647-1.757,3.291-3.531,4.77-5.471.365-.488.768-.949,1.129-1.444l1.061-1.511c.748-.985,1.351-2.074,2.052-3.115,1.256-2.159,2.508-4.39,3.512-6.75.542-1.171.963-2.378,1.425-3.591.392-1.218.83-2.451,1.149-3.693.717-2.49,1.162-5.011,1.489-7.534.62-5.035.484-10.02-.023-14.79-.439-4.79-1.13-9.434-1.811-13.985-.687-4.56-1.373-9.025-1.877-13.525-.472-3.887-.673-7.771-.722-11.863.205-.136.417-.262.619-.403l-.403-1.364c-.08,0-.156-.004-.235-.004,0-.078-.002-.152-.002-.23l-1.289-.434c-.132.208-.25.426-.376.637-3.885-.068-7.576-.286-11.268-.781-4.278-.536-8.52-1.245-12.85-1.963-4.322-.71-8.724-1.43-13.266-1.891-4.523-.531-9.232-.693-14.002-.055-4.764.573-9.573,2.059-14.058,4.11-4.476,2.146-8.628,4.805-12.314,7.929-7.255,6.032-13.166,13.607-17.214,22.839-2.556-.069-5.111-.129-7.666-.165-7.821-.171-15.641-.07-23.462.396-9.316.548-18.632,1.587-27.948,2.429-.059-.917-.133-1.823-.267-2.635-.349-2.702-.996-5.376-1.939-7.922-.44-1.291-1.016-2.513-1.573-3.749-.626-1.192-1.232-2.405-1.964-3.528-.683-1.162-1.486-2.227-2.27-3.311-.834-1.035-1.683-2.064-2.613-3.002-1.829-1.911-3.827-3.641-5.985-5.116-2.138-1.509-4.451-2.733-6.834-3.748-1.195-.5-2.413-.938-3.648-1.314l-.929-.27c-.333-.095-.682-.182-.988-.242l-1.917-.38c-5.063-.868-10.239-.733-15.137.418-9.852,2.213-18.488,8.019-24.901,15.72-1.598,1.94-3.053,4.012-4.342,6.2-.324.546-.636,1.1-.935,1.662-.288.542-.66,1.223-.886,1.792-.498,1.191-1.052,2.38-1.469,3.579-.52,1.413-.96,2.85-1.34,4.301-3.141-.247-6.283-.482-9.424-.675-7.82-.503-15.641-.731-23.461-1.004-15.641-.546-31.283-1.11-46.923-.877-15.641.249-31.283.909-46.923,1.985-15.641,1.099-31.283,2.505-46.924,4.931v1.429c15.641,2.426,31.283,3.832,46.924,4.931,15.641,1.075,31.282,1.736,46.923,1.985ZM1820.775,241.793c-7.324,1.28-15.23.708-22.735-1.766l-2.787-1.025-2.737-1.198-2.718-1.399c-.979-.518-1.837-.984-2.737-1.502-3.547-2.059-6.959-4.445-10.08-7.222l-2.343-2.085-2.216-2.242c-.752-.733-1.453-1.522-2.145-2.32-.682-.807-1.399-1.581-2.055-2.413-1.307-1.668-2.619-3.335-3.78-5.124-1.247-1.722-2.287-3.597-3.377-5.428-2.047-3.752-3.913-7.618-5.331-11.671l-.554-1.506-.489-1.532-.942-3.068c-.519-2.083-1.106-4.131-1.481-6.239-.903-4.166-1.421-8.397-1.777-12.59-.058-1.054-.126-2.102-.203-3.147-.08-1.043-.06-2.116-.097-3.168l-.053-1.582-.04-1.627-.016-3.142c.012-2.096.077-4.169.168-6.268.051-1.059.135-2.106.172-3.16l.217-3.136c.336-4.177.796-8.343,1.445-12.475.276-1.706.591-3.403.932-5.094,4.424-1.544,8.751-3.433,12.915-5.721,7.926-4.338,15.312-10.23,20.862-17.779,1.882-2.531,3.52-5.259,4.89-8.109.949,1.267,1.975,2.461,3.101,3.536l.767.763.821.696c.551.456,1.088.931,1.657,1.356,1.166.806,2.303,1.653,3.543,2.296,2.412,1.416,5.003,2.4,7.588,3.125,1.299.275,2.575.663,3.89.764,1.305.16,2.605.306,3.906.27.648.004,1.296.009,1.94-.016l1.921-.183c.014-.001.029-.004.043-.005-.03,1.514-.06,3.029-.079,4.543-.161,8.177-.065,16.354.376,24.53.526,9.877,1.531,19.754,2.334,29.632-2.265.45-4.492,1.116-6.613,2.065-4.75,2.183-9.026,5.534-12.114,9.829-1.552,2.13-2.874,4.43-3.859,6.867-.46,1.24-.918,2.396-1.293,3.88-.354,1.412-.545,2.826-.619,4.219-.139,2.787.182,5.472.845,8.004.339,1.265.742,2.499,1.247,3.686.513,1.194,1.038,2.324,1.776,3.466,1.407,2.251,3.144,4.157,5.144,5.652,1.992,1.495,4.227,2.627,6.623,3.198,2.386.572,4.972.47,7.251-.425.879-.341,1.691-.802,2.432-1.345-.288,6.464-.701,12.928-1.216,19.393-.114,1.509-.23,3.019-.346,4.529-.655.148-1.309.298-1.974.415ZM1821.152,98.999c-1.071-.153-2.123-.348-3.147-.584-1.847-.39-3.591-1.041-5.289-1.696-1.638-.741-3.212-1.527-4.583-2.61-.726-.476-1.334-1.105-1.986-1.657-.311-.296-.586-.63-.883-.935l-.44-.463-.393-.506c-1.115-1.284-1.922-2.795-2.682-4.277-.358-.727-.647-1.481-.901-2.247.21-.062.428-.11.634-.177l1.935-.608,1.858-.767c1.253-.478,2.417-1.127,3.585-1.752,4.64-2.553,8.737-5.953,12.081-10.023.699-.852,1.359-1.741,1.99-2.65-.601,7.207-1.06,14.414-1.4,21.622-.148,3.11-.27,6.22-.378,9.33ZM1824.616,187.789c.253,8.948.155,17.897-.191,26.845-1.067.585-2.18.962-3.295,1.087-1.789.226-3.551-.202-5.147-.986-3.207-1.572-5.757-4.676-7.03-7.902-1.306-3.318-1.685-7.298-1.014-10.521.179-.805.386-1.578.68-2.275.259-.632.724-1.475,1.134-2.249.897-1.528,1.938-2.927,3.111-4.164,2.337-2.49,5.231-4.255,8.293-5.271,1.054-.351,2.138-.586,3.23-.739.101,2.059.179,4.119.23,6.177ZM1825.838,42.496c-.285,1.833-.554,3.666-.797,5.499-2.529,6.105-6.701,10.825-11.42,14.475-3.152,2.408-6.625,4.267-10.13,5.572l-1.317.467c-.434.17-.889.238-1.326.375l-.408.114.122-.477c.195-.931.534-1.837.822-2.764,1.264-3.668,3.078-7.288,5.407-10.562,3.512-4.915,8.037-9.231,13.829-11.863,1.739-.255,3.478-.538,5.218-.837ZM1799.121,47.332c-3.906,3.452-7.197,7.715-9.667,12.586-.589,1.235-1.244,2.443-1.703,3.766l-.741,1.959c-.231.663-.406,1.355-.602,2.037-.078.298-.164.591-.247.886-.792-.283-1.572-.606-2.323-1.008-1.417-.804-2.867-1.644-4.093-2.817-.334-.261-.635-.56-.925-.874-.291-.312-.616-.595-.892-.927-.533-.679-1.125-1.324-1.582-2.083-.529-.708-.926-1.514-1.37-2.3-.233-.387-.373-.828-.57-1.239-.174-.426-.407-.818-.538-1.281-.624-1.785-1.244-3.622-1.597-5.57-.084-.486-.229-.968-.292-1.465l-.202-1.497-.009-.056c2.98-.115,5.961-.244,8.942-.4,6.849-.358,13.698-.838,20.547-1.467-.729.561-1.446,1.139-2.137,1.752ZM1778.675,81.652c1.948,1.055,4.012,1.872,6.121,2.497.349.091.701.161,1.052.241.068.318.123.638.199.954.593,2.22,1.366,4.393,2.37,6.437-2.069,3.011-4.392,5.769-6.972,8.209-5.823,5.57-12.69,9.738-19.977,12.871-1.571.676-3.165,1.297-4.772,1.883.565-1.687,1.164-3.36,1.817-5.007,3.023-7.648,7.052-14.827,12.394-20.897,2.32-2.66,4.93-5.053,7.769-7.189ZM1829.713,181.676l.598.145c1.606.327,3.141.923,4.628,1.595,1.496.659,2.898,1.547,4.222,2.534,1.334.976,2.54,2.143,3.673,3.37,1.14,1.224,2.139,2.595,3.007,4.043.454.712.823,1.476,1.235,2.213.343.774.731,1.527,1.027,2.324.305.792.572,1.6.802,2.418.111.405.229.844.298,1.189l.243,1.23c.099.402.146.832.199,1.259.048.427.129.851.159,1.282.043.863.138,1.723.105,2.595.023,1.737-.126,3.493-.404,5.241-1.101,7.008-4.65,13.858-9.711,19.072-1.271,1.298-2.639,2.492-4.086,3.562-.361.269-.728.529-1.1.779-.407.265-.641.457-1.067.669-.782.401-1.52.867-2.332,1.253-.186.09-.381.163-.568.251-.047-.617-.095-1.233-.141-1.85-1.303-16.354-1.984-32.707-1.521-49.06.05-2.064.129-4.129.23-6.194l.502.081ZM1775.842,25.697c2.216-3.798,5.233-7.118,8.802-9.49,3.556-2.423,7.695-3.645,11.796-4.085,4.137-.428,8.259-.103,12.417.205,4.161.355,8.388.649,12.771.82,4.367.226,8.858.409,13.45.318,4.579-.082,9.281-.465,13.927-1.493,3.035-.663,6.061-1.636,8.902-2.997-1.299,2.991-2.225,6.185-2.85,9.388-.976,4.903-1.323,9.86-1.392,14.686-.078,4.84.105,9.563.32,14.16.166,4.611.425,9.044.75,13.417.233,4.35.567,8.702.056,13.02l-.195,1.624c-.083.537-.202,1.063-.304,1.6-.172,1.09-.536,2.103-.818,3.17-.721,2.049-1.582,4.087-2.772,5.921-2.308,3.714-5.525,6.811-9.174,9.042-2.832,1.762-5.946,2.942-9.094,3.632-.106-2.988-.224-5.976-.365-8.964-.387-8.177-.913-16.354-1.642-24.53-.383-4.185-.797-8.371-1.288-12.556.506-3.816.284-7.679-.827-11.153l-.674.053v-.714c-.046-.009-.093-.015-.139-.023-.008-.045-.013-.091-.021-.136h-.676l.05-.712c-3.367-1.201-7.111-1.45-10.806-.903-3.956-.51-7.913-.941-11.869-1.34-7.821-.77-15.641-1.327-23.462-1.734-2.844-.149-5.688-.273-8.532-.385.695-3.414,1.886-6.79,3.664-9.838ZM1757.249,47.838c1.455-.021,2.911-.052,4.366-.084-.121,1.242-.189,2.497-.184,3.765.013.689-.006,1.384.04,2.076l.209,2.077c.094,1.399.453,2.756.73,4.134.677,2.747,1.644,5.496,3,8.048,1.987,3.937,4.803,7.488,8.193,10.328-2.634,1.387-5.162,3.042-7.521,4.941-7.211,5.752-12.892,13.472-17.071,21.806-2.209,4.384-4.033,8.949-5.524,13.621-1.616.355-3.238.684-4.868.973-3.925.674-7.882,1.154-11.848,1.51-1.981.179-3.971.289-5.976.418-2.001.098-3.964.175-5.957.194l-2.984-.005-1.542-.033-1.502-.053c-1.001-.029-2.012-.033-3.013-.08-.992-.079-1.988-.148-2.988-.207-3.988-.319-8-.868-11.965-1.766-7.964-1.669-15.75-4.711-22.904-8.983-7.09-4.367-13.588-9.904-18.857-16.514-2.695-3.245-5.01-6.816-7.024-10.527-.991-1.828-1.935-3.852-2.817-5.731-.447-.952-.788-1.924-1.187-2.877-.385-.956-.675-1.956-1.017-2.925-2.463-7.881-3.088-16.226-1.898-23.946.116-.754.265-1.495.417-2.236,1.461-.124,2.921-.248,4.382-.37,6.179-.544,12.357-.979,18.535-1.284-.513.774-.946,1.623-1.268,2.545-.856,2.418-.93,5.173-.352,7.695.578,2.534,1.694,4.879,3.148,6.958,1.454,2.087,3.293,3.887,5.447,5.333,1.088.773,2.157,1.287,3.293,1.82,1.127.517,2.295.938,3.493,1.279,2.395.682,4.931,1.001,7.556.859,1.313-.078,2.645-.277,3.979-.64,1.399-.388,2.494-.86,3.67-1.336,2.311-1.019,4.501-2.389,6.534-4.007,4.101-3.214,7.337-7.709,9.439-12.745.904-2.208,1.534-4.535,1.959-6.902,9.471.849,18.942,1.915,28.413,2.472,7.82.466,15.641.567,23.462.397ZM1660.124,47.451c.119-1.171.482-2.341,1.044-3.46,8.565-.366,17.131-.471,25.697-.203,1.99.053,3.98.138,5.97.246-.144,1.101-.36,2.193-.687,3.255-.971,3.212-2.668,6.247-5.059,8.693-1.187,1.229-2.528,2.318-3.991,3.257-.74.429-1.547.916-2.155,1.191-.671.308-1.411.528-2.182.719-3.088.711-6.865.338-10.058-1.002-3.086-1.294-6.082-3.93-7.613-7.291-.763-1.671-1.182-3.523-.966-5.406ZM1638.31,37.011c.359-.862.814-1.628,1.197-2.451.203-.445.388-.708.636-1.12.239-.39.487-.775.745-1.154,1.024-1.518,2.167-2.951,3.409-4.282,4.988-5.301,11.528-8.994,18.217-10.164.415-.095.834-.15,1.253-.195.419-.046.835-.118,1.253-.151.837-.032,1.671-.125,2.501-.097,1.661-.042,3.316.166,4.92.452l1.176.258c.212.037.375.075.549.125l.591.168c.786.234,1.561.506,2.321.82.766.298,1.49.698,2.23,1.057.367.187.713.417,1.073.619.365.193.716.414,1.058.648,1.404.881,2.704,1.942,3.898,3.109,1.202,1.161,2.303,2.435,3.261,3.815.51.672.91,1.412,1.358,2.126.375.752.797,1.486,1.104,2.274.363.765.61,1.574.913,2.368.225.817.498,1.627.646,2.469.112.446.179.843.236,1.225-1.997.109-3.994.194-5.991.248-15.641.488-31.282-.23-46.923-1.607-.598-.05-1.196-.101-1.794-.151.057-.134.105-.275.163-.409Z" fill="url(#b)"/>
    <path d="M320.328,2592.157c-15.641-.233-31.282.331-46.923.877-7.821.272-15.641.501-23.462,1.004-2.614.161-5.228.352-7.841.552.003-.058.009-.116.011-.174.247-4.974-.236-9.903-1.266-14.625-1.015-4.728-2.613-9.253-4.636-13.497-.533-1.048-1.015-2.117-1.592-3.134-.587-1.006-1.131-2.052-1.752-3.011-1.268-1.933-2.408-3.766-3.725-5.649-1.298-1.854-2.641-3.664-4.053-5.406-1.389-1.761-2.864-3.438-4.382-5.063-5.978-6.604-12.779-12.207-19.95-17.212-7.244-4.874-14.87-9.266-23.04-12.603-2.027-.884-4.114-1.59-6.203-2.332-1.044-.372-2.113-.651-3.173-.98-1.063-.317-2.125-.651-3.207-.893-1.078-.268-2.16-.526-3.247-.774-1.084-.221-2.169-.399-3.257-.599l-1.635-.274-1.598-.246c-1.099-.162-2.201-.296-3.307-.399-2.205-.221-4.447-.356-6.647-.379-1.099-.002-2.201-.031-3.303-.005l-3.316.135c-4.205.243-8.39.814-12.53,1.647.798-4.363,1.345-8.774,1.576-13.208l.126-3.503c.016-1.162-.001-2.33-.01-3.487-.023-2.334-.159-4.695-.376-7.027-.1-1.168-.232-2.333-.391-3.493l-.242-1.685-.263-1.726c-.199-1.149-.344-2.293-.592-3.439-.238-1.146-.486-2.289-.743-3.427-1.12-4.528-2.413-8.978-4.098-13.249-.763-2.163-1.751-4.231-2.607-6.336l-1.454-3.08-.72-1.537-.785-1.503-1.553-3.002-1.66-2.933c-.522-.993-1.119-1.942-1.703-2.895-.596-.946-1.147-1.92-1.756-2.854-2.411-3.758-4.988-7.381-7.724-10.877-2.816-3.419-5.676-6.823-8.878-9.886-1.553-1.584-3.186-3.085-4.866-4.529-1.669-1.461-3.404-2.844-5.178-4.181-.877-.662-1.818-1.337-2.658-1.923l-2.729-1.935-2.883-1.798-2.986-1.624c-4.039-2.062-8.33-3.683-12.802-4.705-4.462-1.037-9.107-1.511-13.791-1.24.188-2.716.368-5.432.519-8.148.476-8.177.692-16.353.95-24.53.517-16.353,1.051-32.707.831-49.06-.236-16.354-.861-32.707-1.879-49.06-1.04-16.353-2.372-32.707-4.668-49.06h-1.353c-2.297,16.354-3.628,32.707-4.669,49.06-1.018,16.354-1.643,32.707-1.879,49.06-.221,16.353.314,32.707.831,49.06.258,8.177.474,16.353.95,24.53.181,3.262.402,6.524.634,9.786-1.413.404-2.814.874-4.191,1.43-1.132.445-2.259,1.007-3.385,1.526-.536.231-1.193.633-1.694.921-.533.311-1.057.636-1.576.971-2.075,1.339-4.046,2.854-5.895,4.52-7.335,6.685-12.947,15.758-15.059,26.207-1.079,5.195-1.223,10.686-.32,16.055l.373,2.031c.161.736.333,1.362.519,2.021.373,1.304.807,2.588,1.3,3.846,1.015,2.501,2.185,4.944,3.672,7.166,1.45,2.243,3.101,4.343,4.957,6.223,1.835,1.9,3.862,3.601,6.057,5.026,4.347,2.903,9.305,4.851,14.4,5.534l.953.139,1.025.084c.109.007.217.015.326.023-.796,9.714-1.776,19.428-2.293,29.142-.441,8.177-.537,16.353-.376,24.53.034,2.665.09,5.329.155,7.994-4.15,1.947-7.917,4.459-11.408,7.216-.484.353-.937.75-1.384,1.153l-1.366,1.171c-.454.391-.866.835-1.304,1.245-.433.417-.887.808-1.301,1.246-1.648,1.757-3.291,3.531-4.77,5.471-.365.488-.768.949-1.129,1.444l-1.061,1.511c-.749.985-1.351,2.074-2.052,3.115-1.255,2.159-2.508,4.39-3.512,6.75-.542,1.171-.963,2.378-1.424,3.59-.392,1.218-.831,2.451-1.149,3.692-.717,2.49-1.163,5.011-1.489,7.534-.62,5.035-.484,10.02.023,14.79.439,4.79,1.131,9.434,1.811,13.984.687,4.56,1.372,9.025,1.878,13.525.472,3.886.672,7.77.721,11.863-.206.136-.417.262-.62.403l.403,1.364c.08,0,.156.003.236.004,0,.078.002.153.002.231l1.289.434c.132-.208.25-.426.376-.637,3.885.068,7.576.286,11.268.781,4.278.536,8.52,1.245,12.85,1.963,4.322.71,8.724,1.43,13.266,1.891,4.523.531,9.231.692,14.002.055,4.764-.573,9.573-2.059,14.058-4.11,4.476-2.146,8.627-4.805,12.313-7.929,7.255-6.032,13.166-13.608,17.215-22.839,2.555.07,5.111.129,7.666.165,7.821.171,15.641.07,23.462-.397,9.316-.548,18.632-1.587,27.948-2.429.059.917.133,1.824.268,2.635.349,2.702.995,5.376,1.939,7.922.44,1.291,1.016,2.513,1.574,3.749.626,1.192,1.231,2.405,1.963,3.528.683,1.162,1.486,2.227,2.27,3.311.834,1.035,1.683,2.064,2.614,3.002,1.828,1.911,3.827,3.641,5.985,5.116,2.137,1.509,4.451,2.732,6.834,3.748,1.195.501,2.413.938,3.647,1.314l.929.27c.334.095.683.182.988.242l1.917.381c5.063.868,10.238.733,15.137-.418,9.852-2.213,18.488-8.019,24.901-15.72,1.598-1.94,3.054-4.013,4.343-6.2.324-.546.635-1.1.935-1.662.288-.542.659-1.223.886-1.792.498-1.191,1.052-2.38,1.468-3.579.519-1.413.959-2.85,1.34-4.301,3.141.247,6.282.482,9.424.675,7.821.503,15.641.731,23.462,1.004,15.641.546,31.282,1.11,46.923.877,15.641-.249,31.282-.909,46.923-1.985,15.641-1.099,31.282-2.505,46.923-4.931v-1.429c-15.641-2.426-31.282-3.832-46.923-4.931-15.641-1.076-31.282-1.736-46.923-1.985ZM45.647,2399.476c7.325-1.281,15.23-.708,22.735,1.766l2.788,1.025,2.736,1.198,2.718,1.399c.98.518,1.837.984,2.737,1.502,3.546,2.059,6.959,4.445,10.08,7.222l2.344,2.085,2.215,2.241c.752.734,1.453,1.522,2.145,2.32.682.807,1.4,1.581,2.055,2.414,1.307,1.668,2.619,3.335,3.78,5.124,1.247,1.722,2.287,3.597,3.378,5.428,2.047,3.752,3.912,7.617,5.33,11.671l.554,1.506.488,1.533.943,3.068c.518,2.083,1.106,4.131,1.481,6.239.903,4.166,1.421,8.396,1.777,12.59.059,1.054.126,2.103.203,3.147.08,1.043.061,2.116.098,3.168l.052,1.582.04,1.627.016,3.142c-.013,2.096-.077,4.169-.168,6.268-.051,1.059-.135,2.107-.172,3.16l-.217,3.136c-.336,4.177-.797,8.343-1.445,12.475-.276,1.705-.591,3.403-.932,5.094-4.424,1.544-8.751,3.433-12.915,5.721-7.926,4.338-15.312,10.23-20.862,17.779-1.882,2.531-3.521,5.259-4.89,8.109-.949-1.267-1.975-2.461-3.101-3.536l-.767-.763-.82-.696c-.552-.456-1.088-.931-1.657-1.356-1.166-.806-2.303-1.653-3.543-2.296-2.411-1.416-5.003-2.4-7.588-3.125-1.299-.275-2.575-.663-3.89-.763-1.305-.16-2.605-.306-3.906-.27-.649-.004-1.296-.009-1.94.016l-1.921.183c-.015,0-.029.003-.043.005.029-1.514.059-3.029.079-4.543.161-8.177.065-16.354-.376-24.53-.526-9.877-1.531-19.755-2.334-29.632,2.264-.449,4.492-1.115,6.613-2.065,4.75-2.182,9.026-5.534,12.113-9.829,1.553-2.129,2.874-4.43,3.859-6.867.46-1.24.918-2.396,1.294-3.88.354-1.412.545-2.826.619-4.219.14-2.787-.182-5.473-.845-8.004-.339-1.265-.743-2.499-1.247-3.686-.513-1.194-1.037-2.324-1.776-3.467-1.407-2.251-3.144-4.157-5.144-5.652-1.992-1.495-4.226-2.627-6.623-3.199-2.387-.571-4.972-.47-7.251.425-.879.341-1.691.802-2.432,1.345.288-6.464.701-12.929,1.216-19.393.114-1.51.23-3.019.346-4.529.654-.148,1.309-.298,1.974-.415ZM45.27,2542.271c1.07.153,2.123.347,3.147.584,1.846.391,3.59,1.041,5.289,1.696,1.638.742,3.212,1.527,4.584,2.61.725.476,1.334,1.105,1.986,1.657.31.296.587.63.883.935l.44.463.392.506c1.116,1.284,1.922,2.795,2.682,4.277.358.727.647,1.481.9,2.247-.21.062-.427.109-.633.176l-1.935.609-1.858.766c-1.252.478-2.418,1.127-3.585,1.752-4.64,2.553-8.736,5.953-12.081,10.023-.7.852-1.359,1.741-1.99,2.65.601-7.207,1.059-14.414,1.4-21.621.148-3.11.27-6.22.378-9.33ZM41.806,2453.48c-.253-8.948-.155-17.897.191-26.845,1.067-.585,2.181-.962,3.295-1.087,1.789-.226,3.551.202,5.147.986,3.207,1.572,5.758,4.677,7.031,7.903,1.306,3.318,1.684,7.298,1.014,10.521-.179.805-.385,1.578-.68,2.275-.259.632-.724,1.475-1.134,2.249-.897,1.528-1.938,2.927-3.111,4.164-2.336,2.49-5.231,4.255-8.293,5.272-1.055.351-2.138.586-3.23.739-.101-2.059-.18-4.118-.23-6.177ZM40.585,2598.774c.285-1.833.554-3.666.797-5.5,2.529-6.105,6.701-10.825,11.42-14.475,3.153-2.409,6.626-4.268,10.13-5.572l1.317-.467c.434-.17.889-.238,1.325-.375l.408-.114-.122.477c-.194.931-.534,1.837-.822,2.764-1.264,3.668-3.079,7.288-5.407,10.562-3.512,4.915-8.037,9.231-13.83,11.863-1.739.255-3.478.538-5.217.837ZM67.302,2593.938c3.906-3.452,7.197-7.715,9.667-12.586.589-1.235,1.244-2.443,1.703-3.766l.74-1.959c.231-.663.407-1.355.602-2.037.079-.299.164-.591.247-.886.792.283,1.572.606,2.324,1.008,1.417.804,2.866,1.645,4.093,2.817.334.261.634.56.925.874.291.312.617.595.892.927.533.679,1.124,1.324,1.582,2.083.53.708.926,1.514,1.37,2.3.233.388.373.828.57,1.24.174.426.407.818.537,1.281.624,1.785,1.244,3.622,1.597,5.57.085.486.229.968.292,1.464l.203,1.497.009.057c-2.981.115-5.961.244-8.942.4-6.849.358-13.698.838-20.547,1.467.729-.561,1.446-1.139,2.137-1.752ZM87.747,2559.618c-1.948-1.055-4.012-1.872-6.121-2.497-.348-.091-.701-.161-1.052-.241-.068-.318-.123-.638-.2-.954-.593-2.22-1.366-4.393-2.369-6.437,2.069-3.012,4.391-5.769,6.972-8.21,5.823-5.57,12.69-9.738,19.977-12.871,1.571-.676,3.165-1.297,4.773-1.883-.565,1.687-1.164,3.36-1.816,5.007-3.023,7.649-7.052,14.828-12.395,20.898-2.32,2.66-4.93,5.053-7.769,7.189ZM36.709,2459.593l-.598-.145c-1.606-.327-3.141-.923-4.629-1.595-1.496-.658-2.898-1.546-4.222-2.533-1.335-.977-2.541-2.144-3.674-3.37-1.14-1.224-2.139-2.595-3.007-4.043-.454-.712-.824-1.476-1.235-2.213-.343-.774-.731-1.527-1.026-2.324-.305-.792-.573-1.6-.802-2.419-.111-.404-.229-.844-.297-1.189l-.244-1.229c-.099-.402-.146-.832-.199-1.26-.048-.427-.129-.851-.159-1.282-.043-.863-.138-1.723-.105-2.595-.023-1.737.126-3.493.404-5.24,1.101-7.008,4.65-13.859,9.711-19.072,1.271-1.298,2.639-2.492,4.086-3.562.361-.269.728-.529,1.1-.779.407-.265.641-.456,1.068-.669.782-.402,1.52-.867,2.331-1.253.186-.09.381-.164.569-.251.047.617.095,1.233.141,1.85,1.303,16.354,1.984,32.707,1.521,49.06-.05,2.065-.129,4.129-.231,6.193l-.502-.08ZM90.58,2615.573c-2.216,3.798-5.233,7.118-8.802,9.49-3.556,2.423-7.695,3.645-11.796,4.085-4.137.427-8.259.103-12.417-.205-4.161-.355-8.388-.649-12.771-.82-4.367-.226-8.858-.409-13.449-.318-4.58.082-9.282.465-13.927,1.493-3.035.664-6.061,1.636-8.902,2.998,1.299-2.992,2.225-6.185,2.85-9.388.976-4.902,1.323-9.86,1.393-14.686.078-4.84-.105-9.563-.32-14.159-.166-4.611-.425-9.044-.75-13.417-.233-4.35-.567-8.702-.056-13.02l.196-1.624c.083-.537.202-1.063.304-1.6.172-1.091.536-2.103.818-3.17.72-2.049,1.582-4.087,2.772-5.921,2.307-3.714,5.524-6.811,9.174-9.042,2.832-1.762,5.946-2.942,9.094-3.632.106,2.988.224,5.976.366,8.964.386,8.177.913,16.353,1.642,24.53.382,4.185.797,8.371,1.287,12.556-.506,3.816-.285,7.679.828,11.154l.674-.054v.715c.046.008.093.015.139.023.008.046.013.091.021.136h.676l-.05.713c3.367,1.201,7.11,1.45,10.806.902,3.956.51,7.913.941,11.869,1.34,7.82.77,15.641,1.326,23.461,1.734,2.844.149,5.688.273,8.532.385-.694,3.414-1.886,6.79-3.664,9.837ZM109.173,2593.432c-1.456.02-2.911.052-4.367.084.121-1.242.189-2.497.184-3.764-.013-.689.006-1.384-.04-2.076l-.209-2.077c-.095-1.399-.454-2.756-.73-4.134-.677-2.747-1.644-5.496-3-8.049-1.987-3.937-4.802-7.488-8.192-10.328,2.634-1.387,5.162-3.042,7.52-4.94,7.211-5.752,12.892-13.473,17.072-21.806,2.209-4.384,4.033-8.949,5.523-13.621,1.616-.355,3.238-.685,4.868-.973,3.925-.674,7.882-1.155,11.849-1.51,1.981-.178,3.971-.289,5.976-.418,2.001-.098,3.964-.175,5.957-.194l2.984.004,1.543.033,1.502.053c1.001.029,2.012.033,3.013.08.992.079,1.987.148,2.988.207,3.988.32,8,.868,11.965,1.766,7.964,1.669,15.75,4.711,22.905,8.982,7.09,4.367,13.587,9.904,18.857,16.514,2.695,3.245,5.01,6.816,7.024,10.528.991,1.827,1.935,3.851,2.818,5.731.447.952.788,1.924,1.187,2.877.384.957.674,1.957,1.017,2.925,2.463,7.882,3.088,16.226,1.898,23.946-.116.754-.265,1.495-.417,2.235-1.461.124-2.921.248-4.382.37-6.179.544-12.357.979-18.536,1.284.513-.774.946-1.623,1.269-2.545.856-2.418.93-5.173.351-7.695-.577-2.533-1.694-4.879-3.148-6.958-1.454-2.087-3.293-3.886-5.447-5.332-1.088-.773-2.157-1.287-3.294-1.82-1.127-.516-2.294-.938-3.493-1.279-2.395-.682-4.93-1.001-7.556-.859-1.313.078-2.645.277-3.978.64-1.399.388-2.494.86-3.671,1.336-2.311,1.019-4.5,2.389-6.534,4.006-4.1,3.214-7.338,7.709-9.438,12.745-.904,2.208-1.534,4.535-1.959,6.901-9.471-.85-18.942-1.915-28.413-2.472-7.82-.466-15.641-.567-23.462-.397ZM206.299,2593.819c-.118,1.171-.482,2.341-1.044,3.46-8.565.366-17.131.471-25.696.203-1.99-.053-3.98-.139-5.97-.246.144-1.101.36-2.193.687-3.255.97-3.211,2.668-6.247,5.058-8.693,1.187-1.229,2.529-2.317,3.991-3.257.74-.429,1.547-.916,2.156-1.191.671-.308,1.411-.529,2.182-.719,3.088-.711,6.865-.338,10.057,1.002,3.086,1.294,6.082,3.93,7.614,7.291.763,1.671,1.182,3.523.966,5.406ZM228.113,2604.258c-.36.862-.814,1.628-1.197,2.451-.203.445-.388.709-.636,1.121-.24.39-.488.776-.745,1.154-1.024,1.518-2.167,2.951-3.409,4.282-4.989,5.302-11.528,8.994-18.217,10.164-.415.095-.834.149-1.253.195-.419.047-.836.118-1.254.151-.837.032-1.671.124-2.501.096-1.661.041-3.316-.166-4.92-.452l-1.177-.258c-.212-.037-.375-.075-.548-.125l-.591-.168c-.786-.233-1.561-.506-2.321-.819-.766-.299-1.49-.698-2.23-1.058-.367-.187-.713-.417-1.073-.619-.366-.192-.716-.413-1.058-.648-1.404-.881-2.704-1.942-3.898-3.109-1.202-1.161-2.304-2.435-3.261-3.815-.51-.671-.91-1.411-1.358-2.126-.376-.752-.797-1.487-1.104-2.274-.363-.765-.61-1.574-.914-2.368-.225-.817-.497-1.627-.645-2.469-.113-.446-.179-.843-.237-1.225,1.997-.108,3.994-.194,5.992-.248,15.641-.489,31.282.23,46.923,1.607.598.05,1.196.101,1.793.151-.057.135-.104.275-.163.408Z" fill="url(#c)"/>
    <path d="M320.328,33.853c-15.641-.233-31.282.331-46.923.877-7.821.273-15.641.501-23.462,1.004-3.141.193-6.283.428-9.424.675-.38-1.45-.82-2.888-1.34-4.301-.417-1.199-.971-2.389-1.468-3.579-.226-.569-.598-1.25-.886-1.792-.3-.562-.611-1.116-.935-1.662-1.289-2.188-2.745-4.26-4.343-6.2-6.413-7.701-15.049-13.507-24.901-15.72-4.899-1.151-10.074-1.286-15.137-.418l-1.917.38c-.306.06-.654.147-.988.242l-.929.27c-1.234.376-2.453.814-3.647,1.314-2.383,1.016-4.696,2.239-6.834,3.748-2.158,1.474-4.156,3.205-5.985,5.116-.931.939-1.779,1.967-2.614,3.002-.784,1.084-1.587,2.149-2.27,3.311-.732,1.123-1.338,2.336-1.963,3.528-.557,1.236-1.134,2.459-1.574,3.749-.944,2.546-1.59,5.219-1.939,7.922-.135.811-.209,1.718-.268,2.635-9.316-.842-18.632-1.881-27.948-2.429-7.82-.466-15.641-.567-23.462-.396-2.555.036-5.111.095-7.666.165-4.049-9.231-9.96-16.807-17.215-22.839-3.686-3.124-7.838-5.783-12.313-7.929-4.485-2.051-9.294-3.537-14.058-4.11-4.77-.638-9.478-.476-14.002.055-4.542.461-8.945,1.181-13.266,1.891-4.33.718-8.572,1.427-12.85,1.963-3.692.495-7.383.713-11.268.781-.127-.212-.245-.429-.376-.637l-1.289.434c0,.078-.002.153-.002.23-.08,0-.156.004-.236.004l-.403,1.364c.202.141.414.268.62.403-.049,4.092-.249,7.976-.721,11.863-.505,4.499-1.191,8.965-1.878,13.525-.68,4.551-1.373,9.194-1.811,13.985-.508,4.771-.643,9.755-.023,14.79.326,2.523.772,5.044,1.489,7.534.318,1.242.757,2.475,1.149,3.693.461,1.212.882,2.42,1.424,3.591,1.004,2.36,2.257,4.591,3.512,6.75.701,1.041,1.303,2.13,2.052,3.115l1.061,1.511c.361.495.764.956,1.129,1.444,1.479,1.94,3.122,3.714,4.77,5.471.414.437.868.829,1.301,1.246.437.41.85.855,1.304,1.245l1.366,1.171c.447.404.9.8,1.384,1.154,3.491,2.757,7.258,5.268,11.408,7.216-.066,2.664-.122,5.329-.155,7.993-.161,8.177-.066,16.354.376,24.53.517,9.714,1.497,19.428,2.293,29.143-.109.008-.217.016-.326.023l-1.025.084-.953.139c-5.094.683-10.053,2.632-14.4,5.534-2.195,1.425-4.222,3.126-6.057,5.026-1.856,1.88-3.507,3.979-4.957,6.223-1.486,2.222-2.657,4.665-3.672,7.166-.493,1.258-.926,2.542-1.3,3.846-.185.658-.358,1.284-.519,2.02l-.373,2.031c-.904,5.368-.759,10.859.32,16.054,2.112,10.448,7.724,19.521,15.059,26.207,1.849,1.666,3.82,3.18,5.895,4.519.519.336,1.043.66,1.576.972.501.288,1.158.69,1.694.921,1.126.518,2.253,1.08,3.385,1.525,1.377.557,2.778,1.026,4.191,1.43-.233,3.262-.453,6.525-.634,9.787-.476,8.177-.692,16.353-.95,24.53-.517,16.354-1.051,32.707-.831,49.06.236,16.354.861,32.707,1.879,49.061,1.041,16.353,2.372,32.707,4.669,49.06h1.353c2.296-16.354,3.628-32.707,4.668-49.06,1.018-16.353,1.643-32.707,1.879-49.061.221-16.353-.313-32.707-.831-49.06-.258-8.177-.474-16.353-.95-24.53-.151-2.716-.331-5.432-.519-8.148,4.684.271,9.329-.202,13.791-1.24,4.472-1.022,8.763-2.643,12.802-4.705l2.986-1.624,2.883-1.798,2.729-1.934c.84-.587,1.781-1.261,2.658-1.923,1.774-1.337,3.509-2.72,5.178-4.181,1.681-1.444,3.314-2.945,4.866-4.529,3.202-3.063,6.061-6.467,8.878-9.886,2.736-3.496,5.314-7.118,7.724-10.876.609-.934,1.16-1.908,1.756-2.854.584-.953,1.181-1.902,1.703-2.895l1.66-2.933,1.553-3.002.785-1.503.72-1.537,1.454-3.08c.856-2.105,1.844-4.173,2.607-6.336,1.685-4.271,2.978-8.721,4.098-13.249.257-1.138.504-2.28.743-3.426.248-1.146.393-2.29.592-3.44l.263-1.726.242-1.685c.159-1.159.291-2.324.391-3.492.217-2.331.353-4.693.376-7.026.008-1.156.026-2.325.01-3.486l-.126-3.503c-.231-4.434-.778-8.845-1.576-13.207,4.14.832,8.325,1.404,12.53,1.647l3.316.135c1.102.026,2.204-.003,3.303-.005,2.2-.023,4.441-.157,6.647-.379,1.106-.102,2.209-.236,3.307-.399l1.598-.246,1.635-.274c1.088-.2,2.173-.378,3.257-.599,1.086-.248,2.169-.506,3.247-.774,1.082-.241,2.145-.575,3.207-.892,1.06-.329,2.129-.608,3.173-.98,2.089-.742,4.176-1.448,6.203-2.332,8.17-3.337,15.796-7.728,23.04-12.603,7.17-5.005,13.972-10.608,19.95-17.212,1.517-1.625,2.993-3.302,4.382-5.063,1.412-1.742,2.755-3.552,4.053-5.406,1.317-1.884,2.457-3.716,3.725-5.649.621-.96,1.166-2.006,1.752-3.012.577-1.017,1.058-2.086,1.592-3.134,2.023-4.243,3.62-8.768,4.636-13.496,1.031-4.722,1.513-9.651,1.266-14.625-.003-.058-.009-.116-.011-.175,2.614.2,5.228.391,7.841.552,7.821.502,15.641.731,23.462,1.003,15.641.546,31.282,1.111,46.923.877,15.641-.249,31.282-.909,46.923-1.985,15.641-1.099,31.282-2.505,46.923-4.931v-1.429c-15.641-2.426-31.282-3.832-46.923-4.931-15.641-1.075-31.282-1.736-46.923-1.985ZM173.804,37.705c.148-.843.42-1.653.645-2.469.303-.794.551-1.603.914-2.368.307-.787.729-1.522,1.104-2.274.448-.715.848-1.455,1.358-2.126.958-1.38,2.059-2.654,3.261-3.815,1.194-1.168,2.493-2.228,3.898-3.109.342-.235.692-.456,1.058-.648.36-.202.706-.432,1.073-.619.74-.36,1.464-.759,2.23-1.057.76-.313,1.535-.586,2.321-.82l.591-.168c.173-.05.336-.088.548-.125l1.177-.258c1.604-.286,3.259-.493,4.92-.452.83-.028,1.664.065,2.501.097.418.033.835.104,1.254.151.419.046.838.1,1.253.195,6.689,1.17,13.229,4.863,18.217,10.164,1.242,1.331,2.385,2.764,3.409,4.282.257.379.505.764.745,1.154.248.412.433.675.636,1.12.383.823.837,1.589,1.197,2.451.058.134.106.274.163.409-.597.05-1.196.101-1.793.151-15.641,1.377-31.282,2.095-46.923,1.607-1.997-.054-3.994-.139-5.992-.248.058-.383.124-.779.237-1.225ZM206.299,47.451c.216,1.882-.203,3.735-.966,5.406-1.532,3.361-4.528,5.997-7.614,7.291-3.192,1.339-6.969,1.713-10.057,1.002-.771-.191-1.511-.411-2.182-.719-.608-.275-1.415-.762-2.156-1.191-1.462-.94-2.804-2.029-3.991-3.257-2.39-2.446-4.088-5.481-5.058-8.693-.327-1.062-.543-2.154-.687-3.255,1.99-.108,3.98-.193,5.97-.246,8.565-.268,17.131-.163,25.696.203.562,1.12.926,2.289,1.044,3.46ZM59.631,55.195c2.328,3.274,4.143,6.894,5.407,10.562.288.927.627,1.833.822,2.764l.122.477-.408-.114c-.436-.137-.892-.206-1.325-.375l-1.317-.467c-3.504-1.304-6.977-3.163-10.13-5.572-4.719-3.65-8.891-8.37-11.42-14.475-.243-1.833-.512-3.666-.797-5.5,1.739.299,3.479.581,5.218.837,5.792,2.632,10.316,6.948,13.829,11.863ZM41.806,187.789c.05-2.059.129-4.118.23-6.177,1.092.154,2.175.388,3.23.739,3.062,1.017,5.957,2.781,8.293,5.271,1.173,1.237,2.214,2.636,3.111,4.164.41.774.875,1.617,1.134,2.249.294.697.501,1.47.68,2.275.671,3.223.293,7.204-1.014,10.521-1.273,3.226-3.824,6.331-7.031,7.902-1.596.784-3.358,1.213-5.147.986-1.114-.125-2.228-.502-3.295-1.087-.346-8.948-.444-17.896-.191-26.845ZM44.892,89.669c-.341-7.207-.8-14.414-1.4-21.622.632.909,1.291,1.798,1.99,2.65,3.345,4.07,7.442,7.47,12.081,10.023,1.167.625,2.332,1.274,3.585,1.752l1.858.767,1.935.608c.206.067.424.115.633.177-.254.766-.542,1.52-.9,2.247-.76,1.481-1.567,2.993-2.682,4.277l-.392.506-.44.463c-.297.305-.573.639-.883.935-.652.551-1.26,1.18-1.986,1.657-1.372,1.083-2.946,1.868-4.584,2.61-1.699.655-3.443,1.306-5.289,1.696-1.024.236-2.077.431-3.147.584-.109-3.11-.231-6.22-.378-9.33ZM80.374,85.344c.077-.316.132-.636.2-.954.351-.08.704-.15,1.052-.241,2.109-.626,4.173-1.443,6.121-2.497,2.839,2.135,5.449,4.529,7.769,7.189,5.343,6.07,9.372,13.249,12.395,20.897.653,1.648,1.252,3.32,1.816,5.007-1.607-.586-3.201-1.206-4.773-1.883-7.287-3.133-14.154-7.301-19.977-12.871-2.58-2.44-4.903-5.198-6.972-8.209,1.003-2.044,1.776-4.217,2.369-6.437ZM92.016,57.316c-.197.411-.337.852-.57,1.239-.444.786-.841,1.592-1.37,2.3-.458.759-1.049,1.404-1.582,2.083-.276.332-.601.615-.892.927-.29.314-.591.614-.925.874-1.226,1.173-2.676,2.013-4.093,2.817-.752.402-1.532.725-2.324,1.008-.083-.295-.168-.587-.247-.886-.195-.682-.371-1.374-.602-2.037l-.74-1.959c-.459-1.323-1.114-2.531-1.703-3.766-2.47-4.872-5.761-9.134-9.667-12.586-.691-.613-1.408-1.191-2.137-1.752,6.849.629,13.698,1.109,20.547,1.467,2.981.156,5.961.285,8.942.4l-.009.056-.203,1.497c-.063.496-.207.979-.292,1.465-.352,1.948-.972,3.785-1.597,5.57-.13.463-.364.855-.537,1.281ZM24.897,95.001c-3.65-2.232-6.866-5.328-9.174-9.042-1.191-1.833-2.052-3.872-2.772-5.921-.282-1.067-.647-2.079-.818-3.17-.102-.537-.221-1.063-.304-1.6l-.196-1.624c-.511-4.318-.177-8.67.056-13.02.325-4.373.584-8.806.75-13.417.215-4.596.398-9.32.32-14.16-.07-4.826-.417-9.783-1.393-14.686-.625-3.203-1.552-6.396-2.85-9.388,2.841,1.361,5.867,2.334,8.902,2.997,4.646,1.029,9.348,1.411,13.927,1.493,4.592.092,9.082-.092,13.449-.318,4.382-.171,8.609-.466,12.771-.82,4.159-.308,8.28-.633,12.417-.205,4.101.44,8.24,1.662,11.796,4.085,3.569,2.373,6.586,5.693,8.802,9.49,1.777,3.047,2.969,6.424,3.664,9.838-2.844.111-5.688.236-8.532.385-7.821.408-15.641.964-23.461,1.734-3.957.399-7.913.83-11.87,1.34-3.695-.547-7.439-.299-10.806.903l.05.712h-.676c-.008.045-.013.091-.021.136-.046.008-.093.015-.139.023v.714l-.674-.053c-1.112,3.474-1.333,7.338-.828,11.153-.491,4.185-.905,8.371-1.287,12.556-.729,8.177-1.256,16.354-1.642,24.53-.142,2.988-.26,5.976-.366,8.964-3.148-.69-6.262-1.871-9.094-3.632ZM35.211,238.449c-.811-.386-1.549-.851-2.331-1.253-.427-.213-.661-.404-1.068-.669-.372-.25-.739-.511-1.1-.779-1.447-1.07-2.815-2.264-4.086-3.562-5.061-5.213-8.61-12.064-9.711-19.072-.278-1.748-.427-3.504-.404-5.241-.032-.872.063-1.732.105-2.595.03-.43.111-.854.159-1.282.053-.427.1-.858.199-1.259l.244-1.23c.068-.345.186-.785.297-1.189.23-.819.497-1.627.802-2.418.296-.797.684-1.549,1.026-2.324.412-.737.781-1.501,1.235-2.213.868-1.448,1.867-2.819,3.007-4.043,1.133-1.227,2.339-2.394,3.674-3.37,1.324-.987,2.726-1.875,4.222-2.534,1.488-.672,3.023-1.268,4.629-1.595l.598-.145.502-.081c.101,2.065.181,4.129.231,6.194.462,16.354-.218,32.707-1.521,49.06-.047.617-.094,1.233-.141,1.85-.188-.087-.383-.16-.569-.251ZM116.325,161.938l-.04,1.627-.052,1.582c-.037,1.053-.018,2.125-.098,3.168-.077,1.045-.144,2.093-.203,3.147-.356,4.193-.874,8.423-1.777,12.59-.376,2.108-.963,4.156-1.481,6.239l-.943,3.068-.488,1.532-.554,1.506c-1.418,4.053-3.283,7.919-5.33,11.671-1.091,1.831-2.131,3.706-3.378,5.428-1.161,1.789-2.473,3.456-3.78,5.124-.655.833-1.373,1.607-2.055,2.413-.692.798-1.392,1.587-2.145,2.32l-2.215,2.242-2.344,2.085c-3.121,2.778-6.534,5.163-10.08,7.222-.9.518-1.757.984-2.737,1.502l-2.718,1.399-2.736,1.198-2.788,1.025c-7.505,2.474-15.411,3.046-22.735,1.766-.665-.117-1.32-.267-1.974-.415-.116-1.51-.232-3.02-.346-4.529-.515-6.464-.928-12.929-1.216-19.393.741.543,1.553,1.004,2.432,1.345,2.279.895,4.865.997,7.251.425,2.396-.572,4.631-1.704,6.623-3.198,2-1.495,3.737-3.401,5.144-5.652.739-1.143,1.263-2.273,1.776-3.466.505-1.187.909-2.421,1.247-3.686.664-2.532.985-5.218.845-8.004-.074-1.393-.265-2.807-.619-4.219-.376-1.484-.834-2.64-1.294-3.88-.985-2.437-2.307-4.737-3.859-6.867-3.087-4.295-7.363-7.646-12.113-9.829-2.121-.949-4.349-1.615-6.613-2.065.803-9.877,1.808-19.754,2.334-29.632.441-8.177.537-16.354.376-24.53-.02-1.514-.05-3.029-.079-4.543.014.001.028.004.043.005l1.921.183c.644.025,1.291.02,1.94.016,1.301.036,2.601-.11,3.906-.27,1.315-.101,2.591-.489,3.89-.764,2.585-.725,5.177-1.709,7.588-3.125,1.24-.644,2.377-1.49,3.543-2.296.569-.424,1.105-.9,1.657-1.356l.82-.696.767-.763c1.126-1.075,2.153-2.269,3.101-3.536,1.369,2.851,3.008,5.578,4.89,8.109,5.551,7.549,12.936,13.441,20.862,17.779,4.164,2.288,8.492,4.177,12.915,5.721.34,1.691.656,3.388.932,5.093.648,4.132,1.109,8.298,1.445,12.475l.217,3.136c.037,1.054.121,2.101.172,3.16.091,2.098.156,4.171.168,6.268l-.016,3.142ZM231.281,48c1.19,7.72.565,16.065-1.898,23.946-.342.968-.632,1.968-1.017,2.925-.399.953-.739,1.925-1.187,2.877-.882,1.88-1.827,3.904-2.818,5.731-2.014,3.712-4.329,7.282-7.024,10.527-5.27,6.609-11.767,12.147-18.857,16.514-7.155,4.271-14.941,7.313-22.905,8.983-3.965.898-7.977,1.447-11.965,1.766-1.001.06-1.996.128-2.988.207-1.001.047-2.011.051-3.013.08l-1.502.053-1.543.033-2.984.005c-1.993-.019-3.955-.096-5.957-.194-2.004-.129-3.994-.239-5.976-.418-3.967-.355-7.923-.836-11.849-1.51-1.629-.289-3.251-.618-4.868-.973-1.491-4.672-3.315-9.237-5.523-13.621-4.179-8.334-9.86-16.054-17.072-21.806-2.359-1.899-4.887-3.553-7.52-4.941,3.39-2.841,6.205-6.392,8.192-10.328,1.356-2.552,2.323-5.302,3-8.048.276-1.379.635-2.736.73-4.134l.209-2.077c.046-.692.027-1.387.04-2.076.005-1.267-.063-2.522-.184-3.765,1.456.032,2.911.063,4.367.084,7.821.171,15.641.07,23.462-.397,9.471-.557,18.942-1.623,28.413-2.472.425,2.367,1.055,4.694,1.959,6.902,2.101,5.036,5.338,9.531,9.438,12.745,2.034,1.617,4.223,2.987,6.534,4.007,1.177.475,2.271.948,3.671,1.336,1.333.363,2.665.562,3.978.64,2.626.141,5.161-.177,7.556-.859,1.199-.341,2.366-.763,3.493-1.279,1.136-.533,2.206-1.047,3.294-1.82,2.154-1.446,3.993-3.245,5.447-5.333,1.454-2.079,2.57-4.424,3.148-6.958.578-2.522.504-5.276-.351-7.695-.322-.922-.756-1.772-1.269-2.545,6.178.305,12.357.74,18.536,1.284,1.461.122,2.921.246,4.382.37.151.74.301,1.482.417,2.236Z" fill="url(#d)"/>
    <path d="M1864.52,2572.669c-.318-1.241-.757-2.475-1.149-3.692-.461-1.212-.883-2.42-1.425-3.59-1.004-2.361-2.256-4.591-3.512-6.75-.701-1.041-1.304-2.13-2.052-3.115l-1.061-1.511c-.361-.495-.764-.956-1.129-1.444-1.479-1.941-3.122-3.714-4.77-5.471-.414-.437-.867-.829-1.3-1.246-.438-.41-.85-.855-1.304-1.245l-1.366-1.171c-.447-.404-.9-.8-1.383-1.153-3.492-2.757-7.258-5.269-11.409-7.216.065-2.665.121-5.329.156-7.994.161-8.177.065-16.354-.376-24.53-.517-9.714-1.497-19.428-2.293-29.142.109-.008.217-.016.327-.023l1.025-.084.952-.139c5.095-.683,10.053-2.631,14.4-5.534,2.195-1.425,4.222-3.126,6.057-5.026,1.857-1.88,3.507-3.98,4.957-6.223,1.487-2.222,2.658-4.665,3.672-7.166.493-1.258.926-2.542,1.299-3.846.185-.658.358-1.285.519-2.021l.373-2.031c.904-5.368.759-10.86-.319-16.055-2.112-10.448-7.724-19.521-15.059-26.207-1.849-1.666-3.82-3.181-5.896-4.52-.518-.336-1.043-.66-1.576-.971-.501-.288-1.158-.69-1.694-.921-1.126-.518-2.253-1.08-3.386-1.526-1.377-.557-2.778-1.026-4.191-1.43.232-3.262.453-6.524.634-9.786.475-8.177.692-16.353.95-24.53.517-16.353,1.052-32.707.831-49.06-.236-16.354-.861-32.707-1.879-49.06-1.04-16.353-2.372-32.707-4.668-49.06h-1.353c-2.297,16.354-3.628,32.707-4.669,49.06-1.018,16.354-1.643,32.707-1.879,49.06-.221,16.353.314,32.707.83,49.06.258,8.177.474,16.353.95,24.53.151,2.716.331,5.432.519,8.148-4.685-.271-9.33.203-13.791,1.24-4.472,1.022-8.762,2.643-12.802,4.705l-2.986,1.624-2.883,1.798-2.729,1.935c-.84.586-1.782,1.261-2.658,1.923-1.774,1.337-3.509,2.72-5.178,4.181-1.68,1.444-3.314,2.945-4.866,4.529-3.202,3.063-6.062,6.467-8.877,9.886-2.736,3.496-5.314,7.118-7.724,10.877-.61.934-1.16,1.908-1.757,2.854-.584.954-1.181,1.902-1.703,2.895l-1.66,2.933-1.553,3.002-.784,1.503-.72,1.537-1.455,3.08c-.855,2.105-1.844,4.173-2.606,6.336-1.686,4.271-2.979,8.721-4.098,13.249-.257,1.138-.505,2.28-.743,3.427-.248,1.146-.392,2.29-.592,3.439l-.263,1.726-.242,1.685c-.159,1.16-.291,2.324-.391,3.493-.217,2.331-.353,4.692-.377,7.027-.008,1.157-.026,2.325-.009,3.487l.126,3.503c.23,4.434.777,8.845,1.575,13.208-4.141-.833-8.325-1.404-12.53-1.647l-3.316-.135c-1.102-.026-2.204.003-3.303.005-2.2.023-4.441.157-6.646.379-1.106.102-2.209.237-3.308.399l-1.598.246-1.635.274c-1.088.2-2.173.378-3.257.599-1.086.248-2.169.506-3.247.774-1.083.242-2.145.575-3.208.893-1.06.33-2.128.608-3.172.98-2.089.742-4.176,1.448-6.203,2.332-8.17,3.337-15.796,7.729-23.04,12.603-7.17,5.005-13.971,10.608-19.949,17.212-1.517,1.625-2.993,3.302-4.382,5.063-1.412,1.742-2.755,3.551-4.053,5.406-1.317,1.884-2.458,3.716-3.725,5.649-.62.959-1.165,2.005-1.752,3.011-.577,1.017-1.058,2.086-1.591,3.134-2.022,4.244-3.62,8.768-4.635,13.497-1.031,4.722-1.513,9.651-1.266,14.625.003.058.008.116.012.174-2.614-.2-5.228-.391-7.842-.552-7.82-.503-15.641-.731-23.461-1.004-15.641-.546-31.283-1.11-46.923-.877-15.641.249-31.283.909-46.923,1.985-15.641,1.099-31.283,2.505-46.924,4.931v1.429c15.641,2.426,31.283,3.832,46.924,4.931,15.641,1.075,31.282,1.736,46.923,1.985,15.641.233,31.282-.331,46.923-.877,7.82-.272,15.641-.501,23.461-1.004,3.141-.193,6.283-.427,9.424-.675.38,1.45.82,2.888,1.34,4.301.417,1.199.97,2.389,1.469,3.579.226.569.598,1.25.886,1.792.3.561.611,1.116.935,1.662,1.289,2.188,2.744,4.26,4.342,6.2,6.413,7.701,15.049,13.507,24.901,15.72,4.899,1.151,10.074,1.286,15.137.418l1.917-.381c.305-.06.655-.147.988-.242l.929-.27c1.235-.376,2.453-.813,3.648-1.314,2.383-1.016,4.696-2.239,6.834-3.748,2.158-1.475,4.156-3.205,5.985-5.116.93-.938,1.779-1.967,2.613-3.002.783-1.084,1.587-2.149,2.27-3.311.732-1.123,1.338-2.336,1.964-3.528.557-1.236,1.133-2.459,1.573-3.749.944-2.546,1.59-5.22,1.939-7.922.134-.811.208-1.718.267-2.635,9.316.843,18.631,1.881,27.948,2.429,7.82.466,15.641.567,23.462.397,2.556-.036,5.111-.095,7.666-.165,4.049,9.231,9.959,16.807,17.215,22.839,3.686,3.124,7.838,5.783,12.314,7.929,4.485,2.051,9.294,3.537,14.058,4.11,4.77.637,9.478.476,14.002-.055,4.542-.461,8.944-1.181,13.266-1.891,4.33-.718,8.573-1.427,12.85-1.963,3.692-.495,7.383-.713,11.268-.781.127.212.245.429.376.637l1.289-.434c0-.078.002-.153.002-.231.079,0,.156-.004.235-.004l.403-1.364c-.202-.141-.414-.267-.619-.403.049-4.093.249-7.977.722-11.863.505-4.5,1.19-8.965,1.877-13.525.681-4.55,1.372-9.194,1.811-13.984.508-4.771.643-9.755.023-14.79-.326-2.523-.772-5.044-1.489-7.534ZM1824.616,2453.48c-.05,2.059-.129,4.118-.229,6.177-1.092-.153-2.176-.388-3.23-.739-3.062-1.017-5.957-2.781-8.293-5.272-1.173-1.237-2.214-2.636-3.111-4.164-.41-.774-.875-1.617-1.134-2.249-.294-.697-.501-1.47-.68-2.275-.67-3.223-.292-7.204,1.014-10.521,1.273-3.226,3.823-6.331,7.03-7.903,1.596-.784,3.359-1.212,5.147-.986,1.114.125,2.228.502,3.295,1.087.346,8.948.444,17.897.191,26.845ZM1821.531,2551.601c.34,7.207.799,14.414,1.4,21.621-.631-.909-1.291-1.798-1.99-2.65-3.345-4.07-7.441-7.47-12.081-10.023-1.167-.625-2.332-1.274-3.585-1.752l-1.858-.766-1.935-.609c-.206-.067-.424-.115-.634-.176.254-.766.542-1.52.901-2.247.759-1.482,1.566-2.993,2.682-4.277l.393-.506.44-.463c.297-.305.573-.639.883-.935.652-.552,1.26-1.18,1.986-1.657,1.371-1.082,2.945-1.868,4.583-2.61,1.699-.655,3.443-1.306,5.289-1.696,1.024-.237,2.076-.431,3.147-.584.109,3.11.231,6.22.378,9.33ZM1786.048,2555.925c-.076.316-.132.636-.199.954-.351.08-.703.15-1.052.241-2.109.626-4.173,1.443-6.121,2.497-2.839-2.135-5.448-4.529-7.769-7.189-5.342-6.07-9.371-13.249-12.394-20.898-.653-1.647-1.251-3.32-1.817-5.007,1.607.585,3.202,1.206,4.772,1.882,7.287,3.133,14.155,7.302,19.977,12.871,2.58,2.441,4.903,5.198,6.972,8.21-1.003,2.044-1.776,4.217-2.37,6.437ZM1774.407,2583.954c.197-.412.337-.852.57-1.24.444-.786.841-1.591,1.37-2.3.458-.759,1.049-1.404,1.582-2.083.276-.332.601-.615.892-.927.29-.314.591-.613.925-.874,1.226-1.173,2.676-2.013,4.093-2.817.751-.402,1.531-.725,2.323-1.008.083.295.168.587.247.886.196.682.371,1.374.602,2.037l.741,1.959c.459,1.323,1.114,2.531,1.703,3.766,2.47,4.872,5.761,9.134,9.667,12.586.691.613,1.408,1.191,2.137,1.752-6.849-.629-13.698-1.11-20.547-1.467-2.98-.156-5.961-.285-8.942-.4l.009-.057.202-1.497c.063-.496.207-.978.292-1.464.352-1.948.972-3.785,1.597-5.57.13-.463.364-.855.538-1.281ZM1806.791,2586.075c-2.328-3.274-4.143-6.894-5.407-10.562-.288-.926-.627-1.833-.822-2.764l-.122-.477.408.114c.436.137.892.205,1.326.375l1.317.467c3.504,1.304,6.977,3.163,10.13,5.572,4.719,3.65,8.891,8.37,11.42,14.475.243,1.833.512,3.666.797,5.5-1.739-.299-3.478-.581-5.217-.836-5.792-2.632-10.317-6.949-13.83-11.863ZM1831.211,2402.82c.811.386,1.55.851,2.332,1.253.427.213.66.404,1.067.669.372.25.738.511,1.1.779,1.447,1.07,2.815,2.264,4.086,3.562,5.061,5.213,8.61,12.064,9.711,19.072.278,1.748.427,3.504.404,5.24.033.872-.062,1.732-.105,2.595-.03.431-.11.854-.159,1.282-.053.427-.1.857-.199,1.26l-.243,1.229c-.068.345-.186.785-.298,1.189-.23.819-.497,1.627-.802,2.419-.296.796-.684,1.549-1.027,2.324-.412.737-.781,1.501-1.235,2.213-.868,1.448-1.867,2.819-3.007,4.043-1.133,1.227-2.339,2.394-3.673,3.37-1.324.987-2.726,1.875-4.222,2.533-1.487.672-3.023,1.268-4.628,1.595l-.598.145-.502.08c-.101-2.065-.18-4.129-.23-6.193-.463-16.354.218-32.707,1.521-49.06.046-.617.094-1.233.141-1.85.188.087.383.161.568.251ZM1750.097,2479.331l.04-1.627.053-1.582c.037-1.053.018-2.125.097-3.168.077-1.045.145-2.094.203-3.147.356-4.193.874-8.423,1.777-12.59.376-2.108.963-4.156,1.481-6.239l.942-3.068.489-1.533.554-1.506c1.418-4.053,3.284-7.919,5.331-11.671,1.091-1.831,2.131-3.706,3.377-5.428,1.161-1.789,2.473-3.456,3.78-5.124.655-.833,1.373-1.607,2.055-2.414.692-.798,1.393-1.587,2.145-2.32l2.216-2.241,2.343-2.085c3.121-2.778,6.533-5.164,10.08-7.222.9-.518,1.758-.984,2.737-1.502l2.718-1.399,2.737-1.198,2.787-1.025c7.505-2.474,15.411-3.046,22.735-1.766.665.116,1.319.267,1.974.415.116,1.51.232,3.019.346,4.529.515,6.464.928,12.928,1.216,19.393-.741-.543-1.553-1.004-2.432-1.345-2.279-.895-4.865-.997-7.251-.425-2.396.572-4.631,1.704-6.623,3.199-1.999,1.495-3.737,3.4-5.144,5.652-.738,1.143-1.263,2.273-1.776,3.467-.505,1.187-.908,2.421-1.247,3.686-.663,2.532-.985,5.218-.845,8.004.074,1.393.265,2.807.619,4.219.376,1.483.833,2.64,1.293,3.88.985,2.437,2.307,4.737,3.859,6.867,3.088,4.295,7.364,7.646,12.114,9.829,2.12.95,4.348,1.616,6.613,2.065-.803,9.877-1.808,19.755-2.334,29.632-.441,8.177-.537,16.353-.376,24.53.019,1.514.049,3.029.079,4.543-.014-.001-.028-.004-.043-.005l-1.921-.183c-.644-.024-1.291-.02-1.94-.016-1.301-.036-2.601.11-3.906.27-1.315.101-2.591.489-3.89.763-2.585.725-5.176,1.709-7.588,3.125-1.239.644-2.377,1.491-3.543,2.296-.569.424-1.105.9-1.657,1.356l-.821.696-.767.763c-1.126,1.075-2.153,2.269-3.101,3.536-1.37-2.85-3.008-5.578-4.89-8.109-5.551-7.549-12.936-13.441-20.862-17.779-4.164-2.288-8.491-4.177-12.915-5.721-.34-1.691-.655-3.388-.932-5.094-.649-4.132-1.109-8.298-1.445-12.475l-.217-3.136c-.037-1.054-.121-2.101-.172-3.16-.091-2.098-.156-4.171-.168-6.268l.016-3.142ZM1692.619,2603.565c-.148.843-.421,1.653-.646,2.469-.303.794-.55,1.603-.913,2.368-.307.787-.729,1.521-1.104,2.274-.448.715-.848,1.455-1.358,2.126-.958,1.38-2.059,2.654-3.261,3.815-1.194,1.168-2.494,2.228-3.898,3.109-.342.235-.692.456-1.058.648-.36.202-.706.432-1.073.619-.74.36-1.464.759-2.23,1.058-.76.313-1.535.586-2.321.819l-.591.168c-.174.05-.336.088-.549.125l-1.176.258c-1.604.286-3.259.493-4.92.452-.831.028-1.665-.065-2.501-.096-.418-.033-.835-.105-1.253-.151-.419-.046-.838-.1-1.253-.195-6.689-1.171-13.229-4.863-18.217-10.164-1.242-1.331-2.385-2.764-3.409-4.282-.258-.379-.506-.764-.745-1.154-.248-.412-.433-.675-.636-1.121-.383-.823-.838-1.589-1.197-2.451-.059-.134-.106-.274-.163-.408.598-.051,1.196-.102,1.794-.151,15.641-1.377,31.282-2.095,46.923-1.607,1.997.054,3.994.139,5.991.248-.058.383-.124.779-.236,1.225ZM1660.124,2593.819c-.216-1.883.203-3.734.966-5.406,1.532-3.36,4.528-5.997,7.613-7.291,3.193-1.339,6.969-1.712,10.058-1.002.771.19,1.51.41,2.182.719.608.275,1.415.762,2.155,1.191,1.462.94,2.804,2.029,3.991,3.257,2.39,2.446,4.088,5.482,5.059,8.693.327,1.062.542,2.154.687,3.255-1.99.108-3.98.193-5.97.246-8.566.268-17.131.163-25.697-.203-.562-1.12-.925-2.289-1.044-3.46ZM1733.788,2593.828c-9.471.557-18.942,1.622-28.413,2.472-.425-2.367-1.055-4.694-1.959-6.901-2.101-5.036-5.338-9.531-9.439-12.745-2.033-1.617-4.223-2.987-6.534-4.006-1.176-.475-2.271-.948-3.67-1.336-1.333-.363-2.666-.562-3.979-.64-2.626-.142-5.162.177-7.556.859-1.198.341-2.365.763-3.493,1.279-1.136.534-2.206,1.048-3.293,1.82-2.154,1.446-3.993,3.245-5.447,5.332-1.455,2.079-2.57,4.425-3.148,6.958-.578,2.522-.504,5.277.352,7.695.322.922.756,1.772,1.268,2.545-6.179-.305-12.357-.74-18.535-1.284-1.461-.122-2.921-.246-4.382-.37-.152-.74-.301-1.482-.417-2.235-1.19-7.72-.565-16.065,1.898-23.946.343-.968.632-1.968,1.017-2.925.399-.953.739-1.925,1.187-2.877.882-1.88,1.827-3.904,2.817-5.731,2.014-3.712,4.329-7.283,7.024-10.528,5.269-6.609,11.767-12.147,18.857-16.514,7.154-4.271,14.941-7.313,22.904-8.982,3.965-.898,7.977-1.446,11.965-1.766,1-.059,1.996-.128,2.988-.207,1.001-.046,2.011-.05,3.013-.08l1.502-.053,1.542-.033,2.984-.004c1.993.019,3.955.096,5.957.194,2.005.129,3.994.239,5.976.418,3.966.355,7.923.836,11.848,1.51,1.629.289,3.252.618,4.868.973,1.491,4.672,3.315,9.237,5.524,13.621,4.179,8.334,9.86,16.054,17.071,21.806,2.359,1.899,4.887,3.553,7.52,4.941-3.389,2.841-6.205,6.392-8.192,10.328-1.356,2.552-2.322,5.302-3,8.049-.277,1.378-.635,2.735-.73,4.134l-.209,2.077c-.047.692-.028,1.387-.04,2.076-.005,1.267.063,2.522.184,3.764-1.455-.031-2.911-.063-4.366-.084-7.821-.171-15.641-.07-23.462.397ZM1849.005,2629.298c-4.646-1.028-9.348-1.411-13.927-1.493-4.592-.092-9.083.092-13.45.318-4.382.171-8.609.466-12.771.82-4.158.308-8.28.633-12.417.205-4.101-.441-8.24-1.662-11.796-4.085-3.569-2.372-6.585-5.693-8.802-9.49-1.777-3.047-2.969-6.424-3.664-9.837,2.844-.111,5.688-.235,8.532-.385,7.821-.408,15.641-.964,23.462-1.734,3.956-.399,7.913-.83,11.869-1.34,3.695.547,7.439.299,10.806-.902l-.05-.713h.676c.008-.046.013-.091.021-.136.046-.008.093-.015.139-.023v-.715l.674.054c1.112-3.474,1.333-7.337.827-11.153.491-4.185.905-8.371,1.288-12.556.729-8.177,1.255-16.353,1.642-24.53.142-2.988.259-5.976.365-8.964,3.148.69,6.262,1.871,9.094,3.632,3.649,2.232,6.866,5.328,9.174,9.042,1.191,1.834,2.051,3.872,2.772,5.921.282,1.067.646,2.079.818,3.17.102.537.22,1.063.304,1.6l.195,1.624c.511,4.318.177,8.67-.056,13.02-.324,4.373-.584,8.806-.75,13.417-.214,4.596-.398,9.32-.32,14.159.07,4.826.416,9.784,1.392,14.686.625,3.203,1.552,6.396,2.85,9.388-2.84-1.361-5.866-2.334-8.902-2.998Z" fill="url(#e)"/>
  </g>
  <g>
    <path d="M41.994,496.947c1.772,34.32,2.953,68.641,3.902,102.961l.71,25.74.548,25.74c.348,17.16.753,34.32.933,51.48l.672,51.48.326,51.481c.314,34.32.069,68.64-.48,102.961-1.14,68.641-4.064,137.281-4.601,205.922-.583,68.641.329,137.281,2.03,205.922l1.218,51.48.604,25.74.481,25.74c.624,34.32.947,68.641,1.287,102.961l.899,102.961c.179,17.16.182,34.32.193,51.48l.016,51.481c-.159,34.32-.408,68.641-.892,102.961l-.696,51.481-.943,51.48c-.284,17.16-.727,34.32-1.13,51.48-.376,17.16-.852,34.32-1.362,51.48-.987,34.32-2.139,68.641-3.714,102.961h-1.805c-1.574-34.32-2.727-68.641-3.714-102.961-.51-17.16-.986-34.32-1.362-51.48-.403-17.16-.847-34.32-1.13-51.48l-.943-51.48-.696-51.481c-.484-34.32-.733-68.641-.892-102.961l.016-51.481c.011-17.16.014-34.32.193-51.48l.899-102.961c.34-34.32.663-68.641,1.287-102.961l.481-25.74.604-25.74,1.218-51.48c1.701-68.641,2.613-137.281,2.03-205.922-.537-68.641-3.461-137.281-4.601-205.922-.55-34.32-.794-68.641-.48-102.961l.326-51.481.672-51.48c.18-17.16.585-34.32.933-51.48l.548-25.74.71-25.74c.949-34.32,2.13-68.641,3.901-102.961h1.805Z" fill="url(#f)"/>
    <path d="M1829.738,496.947c1.772,34.32,2.953,68.641,3.901,102.961l.71,25.74.548,25.74c.348,17.16.753,34.32.933,51.48l.672,51.48.326,51.481c.314,34.32.07,68.64-.48,102.961-1.139,68.641-4.064,137.281-4.601,205.922-.583,68.641.329,137.281,2.03,205.922l1.218,51.48.604,25.74.481,25.74c.624,34.32.947,68.641,1.287,102.961l.899,102.961c.179,17.16.182,34.32.193,51.48l.017,51.481c-.159,34.32-.409,68.641-.892,102.961l-.696,51.481-.943,51.48c-.283,17.16-.727,34.32-1.13,51.48-.376,17.16-.851,34.32-1.362,51.48-.987,34.32-2.139,68.641-3.713,102.961h-1.805c-1.574-34.32-2.727-68.641-3.714-102.961-.51-17.16-.985-34.32-1.362-51.48-.403-17.16-.846-34.32-1.13-51.48l-.943-51.48-.696-51.481c-.484-34.32-.733-68.641-.892-102.961l.016-51.481c.011-17.16.014-34.32.192-51.48l.899-102.961c.34-34.32.663-68.641,1.287-102.961l.481-25.74.604-25.74,1.218-51.48c1.701-68.641,2.613-137.281,2.03-205.922-.537-68.641-3.461-137.281-4.601-205.922-.55-34.32-.794-68.641-.48-102.961l.326-51.481.672-51.48c.18-17.16.585-34.32.933-51.48l.548-25.74.71-25.74c.949-34.32,2.13-68.641,3.901-102.961h1.805Z" fill="url(#g)"/>
  </g>
  <g>
    <path d="M1374.633,42.82c-18.32,1.872-36.639,3.119-54.959,4.121l-13.74.75-13.74.579c-9.16.369-18.319.783-27.479,1.021-18.32.547-36.639.909-54.959,1.057-18.32.228-36.639.092-54.959-.53-36.639-1.237-73.278-4.302-109.917-4.876-36.639-.615-73.278.348-109.917,2.144l-27.48,1.287-13.739.638-13.74.508c-18.32.659-36.639,1-54.959,1.359-18.319.388-36.639.688-54.959.95-18.319.326-36.639.322-54.958.221-18.32-.168-36.639-.431-54.959-.943l-27.479-.735-27.479-.996c-9.16-.299-18.319-.768-27.479-1.194-9.16-.397-18.319-.899-27.479-1.438-18.32-1.042-36.639-2.259-54.959-3.922v-1.907c18.32-1.663,36.639-2.88,54.959-3.922,9.16-.539,18.319-1.041,27.479-1.439,9.16-.425,18.32-.894,27.479-1.193l27.479-.996,27.479-.735c18.32-.511,36.639-.774,54.959-.942,18.319-.101,36.639-.105,54.958.221,18.32.263,36.639.562,54.959.95,18.32.36,36.639.7,54.959,1.36l13.74.508,13.739.638,27.48,1.286c36.639,1.797,73.278,2.76,109.917,2.145,36.639-.575,73.278-3.64,109.917-4.876,18.32-.622,36.639-.757,54.959-.529,18.319.147,36.639.51,54.959,1.056,9.16.239,18.32.652,27.479,1.021l13.74.579,13.74.75c18.32,1.002,36.639,2.249,54.959,4.121v1.907Z" fill="url(#h)"/>
    <path d="M1374.633,2600.356c-18.32,1.871-36.639,3.119-54.959,4.121l-13.74.75-13.74.579c-9.16.369-18.319.783-27.479,1.021-18.32.547-36.639.909-54.959,1.056-18.32.228-36.639.093-54.959-.529-36.639-1.237-73.278-4.302-109.917-4.876-36.639-.615-73.278.348-109.917,2.144l-27.48,1.286-13.739.638-13.74.508c-18.32.659-36.639,1-54.959,1.359-18.319.388-36.639.687-54.959.95-18.319.326-36.639.322-54.958.221-18.32-.168-36.639-.432-54.959-.942l-27.479-.735-27.479-.996c-9.16-.299-18.319-.768-27.479-1.193-9.16-.397-18.319-.899-27.479-1.439-18.32-1.042-36.639-2.259-54.959-3.922v-1.907c18.32-1.663,36.639-2.88,54.959-3.922,9.16-.539,18.319-1.041,27.479-1.439,9.16-.425,18.32-.894,27.479-1.193l27.479-.996,27.479-.735c18.32-.511,36.639-.774,54.959-.942,18.319-.101,36.639-.105,54.958.221,18.32.263,36.639.562,54.959.95,18.32.36,36.639.7,54.959,1.36l13.74.508,13.739.638,27.48,1.287c36.639,1.797,73.278,2.76,109.917,2.144,36.639-.574,73.278-3.64,109.917-4.876,18.32-.622,36.639-.757,54.959-.529,18.319.147,36.639.51,54.959,1.057,9.16.238,18.32.652,27.479,1.021l13.74.579,13.74.75c18.32,1.002,36.639,2.249,54.959,4.121v1.907Z" fill="url(#i)"/>
  </g>
</svg>